{
	"asset":{
		"generator":"Khronos glTF Blender I/O v4.2.70",
		"version":"2.0"
	},
	"extensionsUsed":[
		"KHR_materials_specular"
	],
	"scene":0,
	"scenes":[
		{
			"name":"Scene",
			"nodes":[
				14
			]
		}
	],
	"nodes":[
		{
			"name":"Bone.005",
			"rotation":[
				9.777162190971467e-09,
				5.704137606699078e-08,
				0.06271664798259735,
				0.9980313777923584
			],
			"scale":[
				1,
				0.9999999403953552,
				1
			],
			"translation":[
				-1.7881389169360773e-07,
				0.8074393272399902,
				-1.4210854715202004e-14
			]
		},
		{
			"children":[
				0
			],
			"name":"Bone.003",
			"rotation":[
				-8.68811014242965e-08,
				2.971060020229288e-08,
				-0.35486721992492676,
				0.9349166750907898
			],
			"scale":[
				0.9999999403953552,
				0.9999999403953552,
				0.9999999403953552
			],
			"translation":[
				-3.874301341966202e-07,
				0.5870405435562134,
				8.526512829121202e-14
			]
		},
		{
			"children":[
				1
			],
			"name":"Bone.001",
			"rotation":[
				-7.642393740070474e-08,
				-2.2406947408626365e-08,
				-0.8262226581573486,
				0.5633437037467957
			],
			"scale":[
				0.9999999403953552,
				1,
				0.9999999403953552
			],
			"translation":[
				0,
				1.428877353668213,
				0
			]
		},
		{
			"name":"Bone.006",
			"rotation":[
				3.115817159837775e-09,
				-6.01682543788229e-08,
				-0.04266289621591568,
				0.9990895390510559
			],
			"translation":[
				1.7881392011531716e-07,
				0.7672055959701538,
				0
			]
		},
		{
			"children":[
				3
			],
			"name":"Bone.004",
			"rotation":[
				-4.578923551434855e-08,
				5.181496121053897e-09,
				0.35855183005332947,
				0.9335098266601562
			],
			"scale":[
				0.9999999403953552,
				1,
				0.9999999403953552
			],
			"translation":[
				-1.7881393432617188e-07,
				0.5934854745864868,
				-2.3092638912203256e-14
			]
		},
		{
			"children":[
				4
			],
			"name":"Bone.002",
			"rotation":[
				-1.242727876160643e-08,
				-2.0909350695319517e-08,
				0.8250215649604797,
				0.5651013255119324
			],
			"scale":[
				0.9999997615814209,
				0.9999998211860657,
				0.9999999403953552
			],
			"translation":[
				0,
				1.428877353668213,
				0
			]
		},
		{
			"children":[
				2,
				5
			],
			"name":"Bone",
			"scale":[
				0.9999999403953552,
				0.9999999403953552,
				0.9999999403953552
			]
		},
		{
			"name":"Bone.011",
			"rotation":[
				-0.07215877622365952,
				0.005366500932723284,
				-0.011587243527173996,
				0.9973114132881165
			],
			"scale":[
				0.9999999403953552,
				0.9999999403953552,
				0.9999998807907104
			],
			"translation":[
				-3.771856427192688e-08,
				1.286351203918457,
				1.2999134924029931e-07
			]
		},
		{
			"children":[
				7
			],
			"name":"Bone.009",
			"rotation":[
				-0.3312127888202667,
				0.014107456430792809,
				0.040226731449365616,
				0.9425926208496094
			],
			"scale":[
				0.9999998807907104,
				1,
				0.9999998211860657
			],
			"translation":[
				-3.730349362740526e-14,
				0.3085026144981384,
				-9.685758328714655e-08
			]
		},
		{
			"children":[
				8
			],
			"name":"Bone.007",
			"rotation":[
				-0.6466593146324158,
				-0.2860625982284546,
				-0.6466591954231262,
				0.28606265783309937
			],
			"scale":[
				0.9999999403953552,
				0.9999999403953552,
				0.9999999403953552
			]
		},
		{
			"name":"Bone.012",
			"rotation":[
				-0.0660114660859108,
				-0.005312327295541763,
				0.01495223306119442,
				0.9976927042007446
			],
			"scale":[
				1,
				0.9999998807907104,
				1
			],
			"translation":[
				-1.257285475730896e-08,
				1.2913529872894287,
				6.461050361394882e-09
			]
		},
		{
			"children":[
				10
			],
			"name":"Bone.010",
			"rotation":[
				-0.31898945569992065,
				-0.014689695090055466,
				-0.04394139349460602,
				0.9466251134872437
			],
			"scale":[
				0.9999998211860657,
				1,
				0.9999998807907104
			],
			"translation":[
				3.907985046680551e-14,
				0.3081924021244049,
				-3.4272676430191495e-07
			]
		},
		{
			"children":[
				11
			],
			"name":"Bone.008",
			"rotation":[
				-0.6511135697364807,
				0.275773823261261,
				0.6511134505271912,
				0.2757738530635834
			],
			"scale":[
				0.9999999403953552,
				0.9999999403953552,
				0.9999998807907104
			]
		},
		{
			"mesh":0,
			"name":"FinalBaseMesh",
			"skin":0
		},
		{
			"children":[
				13,
				6,
				9,
				12
			],
			"name":"Armature",
			"scale":[
				4.079525947570801,
				4.079525947570801,
				4.079525947570801
			],
			"translation":[
				-0.27013933658599854,
				11.750650405883789,
				0
			]
		}
	],
	"animations":[
		{
			"channels":[
				{
					"sampler":0,
					"target":{
						"node":6,
						"path":"translation"
					}
				},
				{
					"sampler":1,
					"target":{
						"node":6,
						"path":"rotation"
					}
				},
				{
					"sampler":2,
					"target":{
						"node":6,
						"path":"scale"
					}
				},
				{
					"sampler":3,
					"target":{
						"node":2,
						"path":"translation"
					}
				},
				{
					"sampler":4,
					"target":{
						"node":2,
						"path":"rotation"
					}
				},
				{
					"sampler":5,
					"target":{
						"node":2,
						"path":"scale"
					}
				},
				{
					"sampler":6,
					"target":{
						"node":1,
						"path":"translation"
					}
				},
				{
					"sampler":7,
					"target":{
						"node":1,
						"path":"rotation"
					}
				},
				{
					"sampler":8,
					"target":{
						"node":1,
						"path":"scale"
					}
				},
				{
					"sampler":9,
					"target":{
						"node":0,
						"path":"translation"
					}
				},
				{
					"sampler":10,
					"target":{
						"node":0,
						"path":"rotation"
					}
				},
				{
					"sampler":11,
					"target":{
						"node":0,
						"path":"scale"
					}
				},
				{
					"sampler":12,
					"target":{
						"node":5,
						"path":"translation"
					}
				},
				{
					"sampler":13,
					"target":{
						"node":5,
						"path":"rotation"
					}
				},
				{
					"sampler":14,
					"target":{
						"node":5,
						"path":"scale"
					}
				},
				{
					"sampler":15,
					"target":{
						"node":4,
						"path":"translation"
					}
				},
				{
					"sampler":16,
					"target":{
						"node":4,
						"path":"rotation"
					}
				},
				{
					"sampler":17,
					"target":{
						"node":4,
						"path":"scale"
					}
				},
				{
					"sampler":18,
					"target":{
						"node":3,
						"path":"translation"
					}
				},
				{
					"sampler":19,
					"target":{
						"node":3,
						"path":"rotation"
					}
				},
				{
					"sampler":20,
					"target":{
						"node":3,
						"path":"scale"
					}
				},
				{
					"sampler":21,
					"target":{
						"node":9,
						"path":"translation"
					}
				},
				{
					"sampler":22,
					"target":{
						"node":9,
						"path":"rotation"
					}
				},
				{
					"sampler":23,
					"target":{
						"node":9,
						"path":"scale"
					}
				},
				{
					"sampler":24,
					"target":{
						"node":8,
						"path":"translation"
					}
				},
				{
					"sampler":25,
					"target":{
						"node":8,
						"path":"rotation"
					}
				},
				{
					"sampler":26,
					"target":{
						"node":8,
						"path":"scale"
					}
				},
				{
					"sampler":27,
					"target":{
						"node":7,
						"path":"translation"
					}
				},
				{
					"sampler":28,
					"target":{
						"node":7,
						"path":"rotation"
					}
				},
				{
					"sampler":29,
					"target":{
						"node":7,
						"path":"scale"
					}
				},
				{
					"sampler":30,
					"target":{
						"node":12,
						"path":"translation"
					}
				},
				{
					"sampler":31,
					"target":{
						"node":12,
						"path":"rotation"
					}
				},
				{
					"sampler":32,
					"target":{
						"node":12,
						"path":"scale"
					}
				},
				{
					"sampler":33,
					"target":{
						"node":11,
						"path":"translation"
					}
				},
				{
					"sampler":34,
					"target":{
						"node":11,
						"path":"rotation"
					}
				},
				{
					"sampler":35,
					"target":{
						"node":11,
						"path":"scale"
					}
				},
				{
					"sampler":36,
					"target":{
						"node":10,
						"path":"translation"
					}
				},
				{
					"sampler":37,
					"target":{
						"node":10,
						"path":"rotation"
					}
				},
				{
					"sampler":38,
					"target":{
						"node":10,
						"path":"scale"
					}
				}
			],
			"name":"ArmatureAction",
			"samplers":[
				{
					"input":6,
					"interpolation":"STEP",
					"output":7
				},
				{
					"input":6,
					"interpolation":"STEP",
					"output":8
				},
				{
					"input":6,
					"interpolation":"STEP",
					"output":9
				},
				{
					"input":6,
					"interpolation":"STEP",
					"output":10
				},
				{
					"input":6,
					"interpolation":"STEP",
					"output":11
				},
				{
					"input":6,
					"interpolation":"STEP",
					"output":12
				},
				{
					"input":6,
					"interpolation":"STEP",
					"output":13
				},
				{
					"input":6,
					"interpolation":"STEP",
					"output":14
				},
				{
					"input":6,
					"interpolation":"STEP",
					"output":15
				},
				{
					"input":6,
					"interpolation":"STEP",
					"output":16
				},
				{
					"input":6,
					"interpolation":"STEP",
					"output":17
				},
				{
					"input":6,
					"interpolation":"STEP",
					"output":18
				},
				{
					"input":6,
					"interpolation":"STEP",
					"output":19
				},
				{
					"input":6,
					"interpolation":"STEP",
					"output":20
				},
				{
					"input":6,
					"interpolation":"STEP",
					"output":21
				},
				{
					"input":6,
					"interpolation":"STEP",
					"output":22
				},
				{
					"input":6,
					"interpolation":"STEP",
					"output":23
				},
				{
					"input":6,
					"interpolation":"STEP",
					"output":24
				},
				{
					"input":6,
					"interpolation":"STEP",
					"output":25
				},
				{
					"input":6,
					"interpolation":"STEP",
					"output":26
				},
				{
					"input":6,
					"interpolation":"STEP",
					"output":27
				},
				{
					"input":6,
					"interpolation":"STEP",
					"output":28
				},
				{
					"input":6,
					"interpolation":"STEP",
					"output":29
				},
				{
					"input":6,
					"interpolation":"STEP",
					"output":30
				},
				{
					"input":6,
					"interpolation":"STEP",
					"output":31
				},
				{
					"input":6,
					"interpolation":"STEP",
					"output":32
				},
				{
					"input":6,
					"interpolation":"STEP",
					"output":33
				},
				{
					"input":6,
					"interpolation":"STEP",
					"output":34
				},
				{
					"input":6,
					"interpolation":"STEP",
					"output":35
				},
				{
					"input":6,
					"interpolation":"STEP",
					"output":36
				},
				{
					"input":6,
					"interpolation":"STEP",
					"output":37
				},
				{
					"input":6,
					"interpolation":"STEP",
					"output":38
				},
				{
					"input":6,
					"interpolation":"STEP",
					"output":39
				},
				{
					"input":6,
					"interpolation":"STEP",
					"output":40
				},
				{
					"input":6,
					"interpolation":"STEP",
					"output":41
				},
				{
					"input":6,
					"interpolation":"STEP",
					"output":42
				},
				{
					"input":6,
					"interpolation":"STEP",
					"output":43
				},
				{
					"input":6,
					"interpolation":"STEP",
					"output":44
				},
				{
					"input":6,
					"interpolation":"STEP",
					"output":45
				}
			]
		}
	],
	"materials":[
		{
			"doubleSided":true,
			"extensions":{
				"KHR_materials_specular":{
					"specularFactor":0
				}
			},
			"name":"default",
			"pbrMetallicRoughness":{
				"baseColorFactor":[
					0.800000011920929,
					0.800000011920929,
					0.800000011920929,
					1
				],
				"metallicFactor":0
			}
		}
	],
	"meshes":[
		{
			"name":"FinalBaseMesh",
			"primitives":[
				{
					"attributes":{
						"POSITION":0,
						"NORMAL":1,
						"JOINTS_0":2,
						"WEIGHTS_0":3
					},
					"indices":4,
					"material":0
				}
			]
		}
	],
	"skins":[
		{
			"inverseBindMatrices":5,
			"joints":[
				6,
				2,
				1,
				0,
				5,
				4,
				3,
				9,
				8,
				7,
				12,
				11,
				10
			],
			"name":"Armature"
		}
	],
	"accessors":[
		{
			"bufferView":0,
			"componentType":5126,
			"count":24461,
			"max":[
				5.640087604522705,
				20.684101104736328,
				1.9170000553131104
			],
			"min":[
				-6.044912338256836,
				-0.05659914389252663,
				-1.8530977964401245
			],
			"type":"VEC3"
		},
		{
			"bufferView":1,
			"componentType":5126,
			"count":24461,
			"type":"VEC3"
		},
		{
			"bufferView":2,
			"componentType":5121,
			"count":24461,
			"type":"VEC4"
		},
		{
			"bufferView":3,
			"componentType":5126,
			"count":24461,
			"type":"VEC4"
		},
		{
			"bufferView":4,
			"componentType":5123,
			"count":146754,
			"type":"SCALAR"
		},
		{
			"bufferView":5,
			"componentType":5126,
			"count":13,
			"type":"MAT4"
		},
		{
			"bufferView":6,
			"componentType":5126,
			"count":1,
			"max":[
				0
			],
			"min":[
				0
			],
			"type":"SCALAR"
		},
		{
			"bufferView":7,
			"componentType":5126,
			"count":1,
			"type":"VEC3"
		},
		{
			"bufferView":8,
			"componentType":5126,
			"count":1,
			"type":"VEC4"
		},
		{
			"bufferView":9,
			"componentType":5126,
			"count":1,
			"type":"VEC3"
		},
		{
			"bufferView":10,
			"componentType":5126,
			"count":1,
			"type":"VEC3"
		},
		{
			"bufferView":11,
			"componentType":5126,
			"count":1,
			"type":"VEC4"
		},
		{
			"bufferView":12,
			"componentType":5126,
			"count":1,
			"type":"VEC3"
		},
		{
			"bufferView":13,
			"componentType":5126,
			"count":1,
			"type":"VEC3"
		},
		{
			"bufferView":14,
			"componentType":5126,
			"count":1,
			"type":"VEC4"
		},
		{
			"bufferView":15,
			"componentType":5126,
			"count":1,
			"type":"VEC3"
		},
		{
			"bufferView":16,
			"componentType":5126,
			"count":1,
			"type":"VEC3"
		},
		{
			"bufferView":17,
			"componentType":5126,
			"count":1,
			"type":"VEC4"
		},
		{
			"bufferView":18,
			"componentType":5126,
			"count":1,
			"type":"VEC3"
		},
		{
			"bufferView":19,
			"componentType":5126,
			"count":1,
			"type":"VEC3"
		},
		{
			"bufferView":20,
			"componentType":5126,
			"count":1,
			"type":"VEC4"
		},
		{
			"bufferView":21,
			"componentType":5126,
			"count":1,
			"type":"VEC3"
		},
		{
			"bufferView":22,
			"componentType":5126,
			"count":1,
			"type":"VEC3"
		},
		{
			"bufferView":23,
			"componentType":5126,
			"count":1,
			"type":"VEC4"
		},
		{
			"bufferView":24,
			"componentType":5126,
			"count":1,
			"type":"VEC3"
		},
		{
			"bufferView":25,
			"componentType":5126,
			"count":1,
			"type":"VEC3"
		},
		{
			"bufferView":26,
			"componentType":5126,
			"count":1,
			"type":"VEC4"
		},
		{
			"bufferView":27,
			"componentType":5126,
			"count":1,
			"type":"VEC3"
		},
		{
			"bufferView":28,
			"componentType":5126,
			"count":1,
			"type":"VEC3"
		},
		{
			"bufferView":29,
			"componentType":5126,
			"count":1,
			"type":"VEC4"
		},
		{
			"bufferView":30,
			"componentType":5126,
			"count":1,
			"type":"VEC3"
		},
		{
			"bufferView":31,
			"componentType":5126,
			"count":1,
			"type":"VEC3"
		},
		{
			"bufferView":32,
			"componentType":5126,
			"count":1,
			"type":"VEC4"
		},
		{
			"bufferView":33,
			"componentType":5126,
			"count":1,
			"type":"VEC3"
		},
		{
			"bufferView":34,
			"componentType":5126,
			"count":1,
			"type":"VEC3"
		},
		{
			"bufferView":35,
			"componentType":5126,
			"count":1,
			"type":"VEC4"
		},
		{
			"bufferView":36,
			"componentType":5126,
			"count":1,
			"type":"VEC3"
		},
		{
			"bufferView":37,
			"componentType":5126,
			"count":1,
			"type":"VEC3"
		},
		{
			"bufferView":38,
			"componentType":5126,
			"count":1,
			"type":"VEC4"
		},
		{
			"bufferView":39,
			"componentType":5126,
			"count":1,
			"type":"VEC3"
		},
		{
			"bufferView":40,
			"componentType":5126,
			"count":1,
			"type":"VEC3"
		},
		{
			"bufferView":41,
			"componentType":5126,
			"count":1,
			"type":"VEC4"
		},
		{
			"bufferView":42,
			"componentType":5126,
			"count":1,
			"type":"VEC3"
		},
		{
			"bufferView":43,
			"componentType":5126,
			"count":1,
			"type":"VEC3"
		},
		{
			"bufferView":44,
			"componentType":5126,
			"count":1,
			"type":"VEC4"
		},
		{
			"bufferView":45,
			"componentType":5126,
			"count":1,
			"type":"VEC3"
		}
	],
	"bufferViews":[
		{
			"buffer":0,
			"byteLength":293532,
			"byteOffset":0,
			"target":34962
		},
		{
			"buffer":0,
			"byteLength":293532,
			"byteOffset":293532,
			"target":34962
		},
		{
			"buffer":0,
			"byteLength":97844,
			"byteOffset":587064,
			"target":34962
		},
		{
			"buffer":0,
			"byteLength":391376,
			"byteOffset":684908,
			"target":34962
		},
		{
			"buffer":0,
			"byteLength":293508,
			"byteOffset":1076284,
			"target":34963
		},
		{
			"buffer":0,
			"byteLength":832,
			"byteOffset":1369792
		},
		{
			"buffer":0,
			"byteLength":4,
			"byteOffset":1370624
		},
		{
			"buffer":0,
			"byteLength":12,
			"byteOffset":1370628
		},
		{
			"buffer":0,
			"byteLength":16,
			"byteOffset":1370640
		},
		{
			"buffer":0,
			"byteLength":12,
			"byteOffset":1370656
		},
		{
			"buffer":0,
			"byteLength":12,
			"byteOffset":1370668
		},
		{
			"buffer":0,
			"byteLength":16,
			"byteOffset":1370680
		},
		{
			"buffer":0,
			"byteLength":12,
			"byteOffset":1370696
		},
		{
			"buffer":0,
			"byteLength":12,
			"byteOffset":1370708
		},
		{
			"buffer":0,
			"byteLength":16,
			"byteOffset":1370720
		},
		{
			"buffer":0,
			"byteLength":12,
			"byteOffset":1370736
		},
		{
			"buffer":0,
			"byteLength":12,
			"byteOffset":1370748
		},
		{
			"buffer":0,
			"byteLength":16,
			"byteOffset":1370760
		},
		{
			"buffer":0,
			"byteLength":12,
			"byteOffset":1370776
		},
		{
			"buffer":0,
			"byteLength":12,
			"byteOffset":1370788
		},
		{
			"buffer":0,
			"byteLength":16,
			"byteOffset":1370800
		},
		{
			"buffer":0,
			"byteLength":12,
			"byteOffset":1370816
		},
		{
			"buffer":0,
			"byteLength":12,
			"byteOffset":1370828
		},
		{
			"buffer":0,
			"byteLength":16,
			"byteOffset":1370840
		},
		{
			"buffer":0,
			"byteLength":12,
			"byteOffset":1370856
		},
		{
			"buffer":0,
			"byteLength":12,
			"byteOffset":1370868
		},
		{
			"buffer":0,
			"byteLength":16,
			"byteOffset":1370880
		},
		{
			"buffer":0,
			"byteLength":12,
			"byteOffset":1370896
		},
		{
			"buffer":0,
			"byteLength":12,
			"byteOffset":1370908
		},
		{
			"buffer":0,
			"byteLength":16,
			"byteOffset":1370920
		},
		{
			"buffer":0,
			"byteLength":12,
			"byteOffset":1370936
		},
		{
			"buffer":0,
			"byteLength":12,
			"byteOffset":1370948
		},
		{
			"buffer":0,
			"byteLength":16,
			"byteOffset":1370960
		},
		{
			"buffer":0,
			"byteLength":12,
			"byteOffset":1370976
		},
		{
			"buffer":0,
			"byteLength":12,
			"byteOffset":1370988
		},
		{
			"buffer":0,
			"byteLength":16,
			"byteOffset":1371000
		},
		{
			"buffer":0,
			"byteLength":12,
			"byteOffset":1371016
		},
		{
			"buffer":0,
			"byteLength":12,
			"byteOffset":1371028
		},
		{
			"buffer":0,
			"byteLength":16,
			"byteOffset":1371040
		},
		{
			"buffer":0,
			"byteLength":12,
			"byteOffset":1371056
		},
		{
			"buffer":0,
			"byteLength":12,
			"byteOffset":1371068
		},
		{
			"buffer":0,
			"byteLength":16,
			"byteOffset":1371080
		},
		{
			"buffer":0,
			"byteLength":12,
			"byteOffset":1371096
		},
		{
			"buffer":0,
			"byteLength":12,
			"byteOffset":1371108
		},
		{
			"buffer":0,
			"byteLength":16,
			"byteOffset":1371120
		},
		{
			"buffer":0,
			"byteLength":12,
			"byteOffset":1371136
		}
	],
	"buffers":[
		{
			"byteLength":1371148,
			"uri":"male-with-tshirt.bin"
		}
	]
}
