{
	"asset":{
		"generator":"Khronos glTF Blender I/O v4.2.70",
		"version":"2.0"
	},
	"extensionsUsed":[
		"KHR_texture_transform"
	],
	"extensionsRequired":[
		"KHR_texture_transform"
	],
	"scene":0,
	"scenes":[
		{
			"name":"Scene",
			"nodes":[
				0
			]
		}
	],
	"nodes":[
		{
			"mesh":0,
			"name":"T_Shirt_male"
		}
	],
	"materials":[
		{
			"doubleSided":true,
			"name":"lambert1",
			"normalTexture":{
				"extensions":{
					"KHR_texture_transform":{
						"offset":[
							0,
							-7
						],
						"scale":[
							8,
							8
						]
					}
				},
				"index":0,
				"scale":2.809999942779541
			},
			"occlusionTexture":{
				"index":1
			},
			"pbrMetallicRoughness":{
				"baseColorFactor":[
					0.5,
					0.5,
					0.5,
					1
				],
				"metallicFactor":0,
				"roughnessFactor":0.5527864098548889
			}
		}
	],
	"meshes":[
		{
			"name":"Mesh",
			"primitives":[
				{
					"attributes":{
						"POSITION":0,
						"NORMAL":1,
						"TEXCOORD_0":2
					},
					"indices":3,
					"material":0
				}
			]
		}
	],
	"textures":[
		{
			"sampler":0,
			"source":0
		},
		{
			"sampler":0,
			"source":1
		}
	],
	"images":[
		{
			"mimeType":"image/jpeg",
			"name":"Image_0",
			"uri":"Image_0.jpg"
		},
		{
			"mimeType":"image/jpeg",
			"name":"Image_1",
			"uri":"Image_1.jpg"
		}
	],
	"accessors":[
		{
			"bufferView":0,
			"componentType":5126,
			"count":10518,
			"max":[
				0.2742999494075775,
				0.26103538274765015,
				0.14407110214233398
			],
			"min":[
				-0.27585458755493164,
				-0.35195234417915344,
				-0.12488541007041931
			],
			"type":"VEC3"
		},
		{
			"bufferView":1,
			"componentType":5126,
			"count":10518,
			"type":"VEC3"
		},
		{
			"bufferView":2,
			"componentType":5126,
			"count":10518,
			"type":"VEC2"
		},
		{
			"bufferView":3,
			"componentType":5123,
			"count":58551,
			"type":"SCALAR"
		}
	],
	"bufferViews":[
		{
			"buffer":0,
			"byteLength":126216,
			"byteOffset":0,
			"target":34962
		},
		{
			"buffer":0,
			"byteLength":126216,
			"byteOffset":126216,
			"target":34962
		},
		{
			"buffer":0,
			"byteLength":84144,
			"byteOffset":252432,
			"target":34962
		},
		{
			"buffer":0,
			"byteLength":117102,
			"byteOffset":336576,
			"target":34963
		}
	],
	"samplers":[
		{
			"magFilter":9729,
			"minFilter":9987
		}
	],
	"buffers":[
		{
			"byteLength":453680,
			"uri":"ShirtModel.bin"
		}
	]
}
